<svg width="247" height="59" viewBox="0 0 247 59" fill="none" xmlns="http://www.w3.org/2000/svg">
<path d="M218.897 14.9366L227.472 30.62L236.185 14.9366H246.779L233.972 36.1797L247 57.4229H236.461L227.472 42.1267L218.565 57.4229H207.944L220.889 36.1797L208.276 14.9366H218.897Z" fill="#FDFFFD"/>
<path d="M179.585 58.5016C175.03 58.5016 171.121 57.3491 167.857 55.0441C164.611 52.7206 162.113 49.3737 160.361 45.0034C158.627 40.6146 157.761 35.3315 157.761 29.154C157.779 22.9765 158.655 17.7211 160.388 13.3876C162.14 9.03572 164.639 5.71647 167.884 3.42989C171.148 1.14329 175.048 0 179.585 0C184.121 0 188.021 1.14329 191.285 3.42989C194.549 5.71647 197.048 9.03572 198.781 13.3876C200.533 17.7395 201.409 22.995 201.409 29.154C201.409 35.3499 200.533 40.6423 198.781 45.0311C197.048 49.4014 194.549 52.7391 191.285 55.0441C188.04 57.3491 184.139 58.5016 179.585 58.5016ZM179.585 49.8439C183.125 49.8439 185.919 48.1013 187.966 44.6161C190.031 41.1125 191.064 35.9585 191.064 29.154C191.064 24.6546 190.594 20.8743 189.653 17.8133C188.713 14.7522 187.385 12.4472 185.67 10.8982C183.955 9.33076 181.927 8.54705 179.585 8.54705C176.063 8.54705 173.278 10.2989 171.231 13.8025C169.184 17.2877 168.152 22.4049 168.133 29.154C168.115 33.6719 168.567 37.4706 169.489 40.5501C170.429 43.6296 171.757 45.9531 173.472 47.5205C175.187 49.0695 177.224 49.8439 179.585 49.8439Z" fill="#FDFFFD"/>
<path d="M129.049 58.1974C125.361 58.1974 122.061 57.5059 119.147 56.1229C116.233 54.7214 113.919 52.8036 112.204 50.3695C110.508 47.9354 109.604 45.1509 109.494 42.0161H119.451C119.636 44.3396 120.641 46.2389 122.466 47.7141C124.292 49.1709 126.486 49.8993 129.049 49.8993C131.059 49.8993 132.848 49.4383 134.416 48.5163C135.983 47.5943 137.218 46.3127 138.122 44.6715C139.026 43.0303 139.468 41.1586 139.45 39.0564C139.468 36.9174 139.016 35.018 138.094 33.3584C137.172 31.6988 135.909 30.3987 134.305 29.4583C132.701 28.4994 130.857 28.0199 128.773 28.0199C127.076 28.0015 125.407 28.315 123.766 28.9604C122.125 29.6058 120.825 30.4541 119.866 31.5052L110.6 29.9838L113.56 0.774506H146.42V9.34922H122.051L120.419 24.3688H120.751C121.802 23.1333 123.287 22.1099 125.205 21.2985C127.122 20.4687 129.225 20.0538 131.511 20.0538C134.941 20.0538 138.002 20.8651 140.694 22.4879C143.387 24.0922 145.507 26.305 147.056 29.1264C148.605 31.9477 149.38 35.1748 149.38 38.8075C149.38 42.5509 148.513 45.8885 146.78 48.8205C145.065 51.7341 142.677 54.0299 139.616 55.708C136.573 57.3676 133.051 58.1974 129.049 58.1974Z" fill="#FDFFFD"/>
<path d="M90.1105 16.3473C89.8524 13.9316 88.7644 12.0507 86.8466 10.7046C84.9473 9.35842 82.4763 8.68535 79.4336 8.68535C77.2946 8.68535 75.4598 9.00805 73.9292 9.65346C72.3987 10.2989 71.2277 11.1748 70.4164 12.2812C69.605 13.3876 69.1901 14.6508 69.1717 16.0707C69.1717 17.2508 69.439 18.2743 69.9738 19.141C70.527 20.0077 71.2738 20.7453 72.2143 21.3538C73.1548 21.9439 74.1966 22.4418 75.3399 22.8474C76.4832 23.2531 77.6357 23.5943 78.7975 23.8709L84.1082 25.1986C86.2473 25.6965 88.3034 26.3695 90.2765 27.2178C92.2681 28.066 94.0475 29.1356 95.615 30.4264C97.2008 31.7172 98.4547 33.2754 99.3768 35.101C100.299 36.9266 100.76 39.0656 100.76 41.5182C100.76 44.8374 99.9115 47.7602 98.215 50.2865C96.5185 52.7944 94.066 54.7583 90.8574 56.1782C87.6672 57.5796 83.804 58.2804 79.2677 58.2804C74.8605 58.2804 71.0341 57.5981 67.7886 56.2335C64.5616 54.8689 62.0353 52.8774 60.2097 50.2589C58.4026 47.6403 57.4252 44.4502 57.2777 40.6884H67.3737C67.5213 42.6615 68.1298 44.3027 69.1993 45.6119C70.2689 46.9212 71.6611 47.8985 73.376 48.5439C75.1094 49.1893 77.0456 49.512 79.1847 49.512C81.416 49.512 83.3706 49.1801 85.0487 48.5163C86.7452 47.834 88.0729 46.8935 89.0318 45.6949C89.9907 44.4778 90.4793 43.0579 90.4978 41.4352C90.4793 39.96 90.046 38.7429 89.1977 37.784C88.3495 36.8067 87.1601 35.9953 85.6296 35.3499C84.1175 34.6861 82.3472 34.096 80.3188 33.5797L73.8739 31.92C69.2085 30.7214 65.5205 28.9051 62.8098 26.471C60.1175 24.0184 58.7714 20.7637 58.7714 16.7068C58.7714 13.3692 59.6749 10.4464 61.4821 7.93852C63.3077 5.43065 65.7879 3.4852 68.9227 2.10219C72.0576 0.700728 75.6073 0 79.572 0C83.5919 0 87.114 0.700728 90.1382 2.10219C93.1808 3.4852 95.5689 5.41221 97.3022 7.8832C99.0356 10.3357 99.93 13.1571 99.9853 16.3473H90.1105Z" fill="#FDFFFD"/>
<path d="M49.9269 19.8878H39.582C39.2869 18.1913 38.7429 16.6884 37.95 15.3792C37.1571 14.0515 36.1705 12.9266 34.9903 12.0046C33.8102 11.0826 32.464 10.3911 30.9519 9.93007C29.4583 9.45062 27.8448 9.2109 26.1114 9.2109C23.0319 9.2109 20.3027 9.98539 17.9239 11.5344C15.5451 13.0649 13.6827 15.3146 12.3365 18.2835C10.9904 21.2339 10.3173 24.839 10.3173 29.0987C10.3173 33.4321 10.9904 37.0833 12.3365 40.0522C13.7011 43.0026 15.5636 45.2339 17.9239 46.746C20.3027 48.2396 23.0226 48.9865 26.0837 48.9865C27.7802 48.9865 29.3661 48.7652 30.8413 48.3226C32.3349 47.8616 33.6719 47.1886 34.852 46.3034C36.0507 45.4183 37.0556 44.3303 37.867 43.0395C38.6968 41.7487 39.2685 40.2735 39.582 38.6138L49.9269 38.6692C49.5397 41.3614 48.7007 43.8878 47.4098 46.2481C46.1375 48.6085 44.4686 50.6922 42.4033 52.4993C40.338 54.288 37.9223 55.6895 35.1563 56.7037C32.3903 57.6995 29.32 58.1974 25.9454 58.1974C20.9665 58.1974 16.5225 57.0449 12.6131 54.7398C8.70379 52.4348 5.62427 49.1063 3.37456 44.7544C1.12485 40.4026 0 35.184 0 29.0987C0 22.995 1.13407 17.7764 3.40222 13.4429C5.67037 9.09104 8.75911 5.76257 12.6684 3.45754C16.5778 1.15251 21.0034 0 25.9454 0C29.0987 0 32.0307 0.442565 34.7414 1.3277C37.4521 2.21283 39.8678 3.51287 41.9884 5.22781C44.109 6.92431 45.8516 9.00805 47.2162 11.479C48.5992 13.9316 49.5028 16.7345 49.9269 19.8878Z" fill="#FDFFFD"/>
</svg>
