<svg xmlns="http://www.w3.org/2000/svg" xmlns:xlink="http://www.w3.org/1999/xlink" width="247" zoomAndPan="magnify" viewBox="0 0 185.25 44.249999" height="59" preserveAspectRatio="xMidYMid meet" version="1.0"><defs><g/><clipPath id="13b20c64c1"><path d="M 1.175781 0 L 183.335938 0 L 183.335938 43.511719 L 1.175781 43.511719 Z M 1.175781 0 " clip-rule="nonzero"/></clipPath><clipPath id="f2019fa309"><path d="M 90.726562 2.476562 L 94.0625 2.476562 L 94.0625 5.644531 L 90.726562 5.644531 Z M 90.726562 2.476562 " clip-rule="nonzero"/></clipPath><clipPath id="686fde894d"><path d="M 92.449219 2.507812 L 92.917969 3.460938 C 92.925781 3.476562 92.941406 3.488281 92.960938 3.492188 L 94.011719 3.644531 C 94.054688 3.652344 94.074219 3.707031 94.042969 3.738281 L 93.28125 4.480469 C 93.269531 4.492188 93.261719 4.511719 93.265625 4.53125 L 93.445312 5.578125 C 93.449219 5.621094 93.402344 5.65625 93.363281 5.636719 L 92.421875 5.140625 C 92.40625 5.132812 92.386719 5.132812 92.371094 5.140625 L 91.429688 5.636719 C 91.390625 5.65625 91.34375 5.621094 91.351562 5.578125 L 91.527344 4.53125 C 91.53125 4.511719 91.527344 4.492188 91.511719 4.480469 L 90.753906 3.738281 C 90.722656 3.707031 90.742188 3.652344 90.785156 3.644531 L 91.835938 3.492188 C 91.855469 3.488281 91.867188 3.476562 91.878906 3.460938 L 92.347656 2.507812 C 92.367188 2.46875 92.429688 2.46875 92.449219 2.507812 Z M 92.449219 2.507812 " clip-rule="nonzero"/></clipPath><clipPath id="1368294d78"><path d="M 95.59375 4.0625 L 97.976562 4.0625 L 97.976562 6.320312 L 95.59375 6.320312 Z M 95.59375 4.0625 " clip-rule="nonzero"/></clipPath><clipPath id="e998e1dfa4"><path d="M 96.824219 4.082031 L 97.160156 4.761719 C 97.164062 4.773438 97.175781 4.78125 97.191406 4.785156 L 97.941406 4.894531 C 97.972656 4.898438 97.984375 4.9375 97.960938 4.960938 L 97.417969 5.488281 C 97.410156 5.5 97.40625 5.511719 97.40625 5.527344 L 97.535156 6.273438 C 97.539062 6.304688 97.507812 6.332031 97.476562 6.316406 L 96.804688 5.960938 C 96.792969 5.957031 96.78125 5.957031 96.769531 5.960938 L 96.097656 6.316406 C 96.070312 6.332031 96.035156 6.304688 96.039062 6.273438 L 96.167969 5.527344 C 96.167969 5.511719 96.164062 5.5 96.15625 5.488281 L 95.613281 4.960938 C 95.589844 4.9375 95.605469 4.898438 95.636719 4.894531 L 96.386719 4.785156 C 96.398438 4.78125 96.410156 4.773438 96.417969 4.761719 L 96.75 4.082031 C 96.765625 4.054688 96.808594 4.054688 96.824219 4.082031 Z M 96.824219 4.082031 " clip-rule="nonzero"/></clipPath><clipPath id="e8494c6efa"><path d="M 86.527344 4.0625 L 88.914062 4.0625 L 88.914062 6.320312 L 86.527344 6.320312 Z M 86.527344 4.0625 " clip-rule="nonzero"/></clipPath><clipPath id="6e5a57df82"><path d="M 87.757812 4.082031 L 88.09375 4.761719 C 88.097656 4.773438 88.109375 4.78125 88.125 4.785156 L 88.875 4.894531 C 88.90625 4.898438 88.917969 4.9375 88.894531 4.960938 L 88.355469 5.488281 C 88.34375 5.5 88.339844 5.511719 88.34375 5.527344 L 88.46875 6.273438 C 88.472656 6.304688 88.441406 6.332031 88.410156 6.316406 L 87.742188 5.960938 C 87.726562 5.957031 87.714844 5.957031 87.703125 5.960938 L 87.03125 6.316406 C 87.003906 6.332031 86.96875 6.304688 86.972656 6.273438 L 87.101562 5.527344 C 87.101562 5.511719 87.101562 5.5 87.089844 5.488281 L 86.550781 4.960938 C 86.523438 4.9375 86.539062 4.898438 86.570312 4.894531 L 87.320312 4.785156 C 87.335938 4.78125 87.34375 4.773438 87.351562 4.761719 L 87.6875 4.082031 C 87.703125 4.054688 87.742188 4.054688 87.757812 4.082031 Z M 87.757812 4.082031 " clip-rule="nonzero"/></clipPath><clipPath id="36e79b9efc"><path d="M 76.835938 9.550781 L 107.8125 9.550781 L 107.8125 19.875 L 76.835938 19.875 Z M 76.835938 9.550781 " clip-rule="nonzero"/></clipPath></defs><g clip-path="url(#13b20c64c1)"><path fill="#ffffff" d="M 1.175781 0 L 183.335938 0 L 183.335938 43.511719 L 1.175781 43.511719 Z M 1.175781 0 " fill-opacity="1" fill-rule="nonzero"/><path fill="#ff3131" d="M 1.175781 0 L 183.335938 0 L 183.335938 43.511719 L 1.175781 43.511719 Z M 1.175781 0 " fill-opacity="1" fill-rule="nonzero"/></g><g clip-path="url(#f2019fa309)"><g clip-path="url(#686fde894d)"><path fill="#7ebd46" d="M 90.738281 2.476562 L 94.0625 2.476562 L 94.0625 5.644531 L 90.738281 5.644531 Z M 90.738281 2.476562 " fill-opacity="1" fill-rule="nonzero"/></g></g><g clip-path="url(#1368294d78)"><g clip-path="url(#e998e1dfa4)"><path fill="#7ebd46" d="M 95.601562 4.0625 L 97.976562 4.0625 L 97.976562 6.320312 L 95.601562 6.320312 Z M 95.601562 4.0625 " fill-opacity="1" fill-rule="nonzero"/></g></g><g clip-path="url(#e8494c6efa)"><g clip-path="url(#6e5a57df82)"><path fill="#7ebd46" d="M 86.539062 4.0625 L 88.914062 4.0625 L 88.914062 6.320312 L 86.539062 6.320312 Z M 86.539062 4.0625 " fill-opacity="1" fill-rule="nonzero"/></g></g><g clip-path="url(#36e79b9efc)"><path fill="#125295" d="M 106.976562 37.21875 C 103.089844 35.875 98.769531 36.425781 95.335938 38.714844 L 92.589844 40.546875 L 92.589844 19.917969 L 94.929688 18.183594 C 97.703125 16.128906 101.121094 15.328125 104.476562 15.902344 C 104.492188 15.90625 104.511719 15.910156 104.53125 15.910156 C 104.941406 15.980469 105.347656 16.074219 105.75 16.1875 L 106.976562 16.527344 Z M 81.84375 36.496094 C 80.390625 36.496094 78.933594 36.734375 77.535156 37.21875 L 77.535156 16.527344 L 78.761719 16.1875 C 79.167969 16.074219 79.574219 15.980469 79.980469 15.910156 C 80 15.910156 80.015625 15.90625 80.035156 15.902344 C 83.390625 15.328125 86.808594 16.128906 89.582031 18.183594 L 91.921875 19.917969 L 91.921875 40.546875 L 89.175781 38.714844 C 86.980469 37.25 84.417969 36.496094 81.84375 36.496094 Z M 80.285156 12.960938 C 82.011719 13.191406 89.316406 14.421875 91.523438 18.789062 L 89.980469 17.648438 C 87.15625 15.558594 83.703125 14.695312 80.285156 15.183594 Z M 83.800781 10.375 C 85.324219 10.945312 90.40625 13.15625 91.644531 17.675781 C 89.878906 15.089844 86.476562 13.703125 83.800781 12.980469 Z M 100.710938 10.375 L 100.710938 12.980469 C 98.035156 13.703125 94.632812 15.089844 92.867188 17.675781 C 94.109375 13.15625 99.1875 10.945312 100.710938 10.375 Z M 104.226562 15.183594 C 100.808594 14.695312 97.355469 15.558594 94.53125 17.648438 L 92.988281 18.789062 C 95.195312 14.421875 102.5 13.191406 104.226562 12.960938 Z M 107.402344 15.949219 L 105.929688 15.539062 C 105.585938 15.445312 105.242188 15.363281 104.894531 15.296875 L 104.894531 12.582031 C 104.894531 12.488281 104.855469 12.398438 104.785156 12.335938 C 104.714844 12.269531 104.621094 12.238281 104.527344 12.25 C 104.378906 12.261719 103.089844 12.394531 101.378906 12.808594 L 101.378906 9.902344 C 101.378906 9.796875 101.328125 9.699219 101.246094 9.636719 C 101.160156 9.570312 101.050781 9.550781 100.949219 9.582031 C 100.867188 9.609375 93.878906 11.804688 92.257812 17.375 C 90.632812 11.804688 83.644531 9.609375 83.5625 9.582031 C 83.460938 9.550781 83.351562 9.570312 83.265625 9.636719 C 83.183594 9.699219 83.132812 9.796875 83.132812 9.902344 L 83.132812 12.808594 C 81.421875 12.394531 80.132812 12.261719 79.984375 12.25 C 79.890625 12.238281 79.796875 12.269531 79.726562 12.335938 C 79.65625 12.398438 79.617188 12.488281 79.617188 12.582031 L 79.617188 15.296875 C 79.269531 15.363281 78.925781 15.445312 78.582031 15.539062 L 77.109375 15.949219 C 76.964844 15.992188 76.867188 16.125 76.867188 16.273438 L 76.867188 37.699219 C 76.867188 37.808594 76.921875 37.910156 77.011719 37.972656 C 77.101562 38.035156 77.21875 38.050781 77.320312 38.011719 L 77.382812 37.988281 C 81.164062 36.542969 85.433594 37.023438 88.804688 39.269531 L 92.070312 41.449219 C 92.074219 41.453125 92.078125 41.457031 92.082031 41.457031 C 92.089844 41.460938 92.09375 41.464844 92.097656 41.46875 C 92.101562 41.46875 92.105469 41.46875 92.105469 41.472656 C 92.113281 41.472656 92.117188 41.476562 92.125 41.480469 C 92.132812 41.480469 92.140625 41.484375 92.152344 41.488281 C 92.15625 41.492188 92.160156 41.492188 92.167969 41.492188 C 92.175781 41.496094 92.1875 41.5 92.199219 41.5 C 92.203125 41.5 92.207031 41.503906 92.210938 41.503906 C 92.226562 41.503906 92.242188 41.507812 92.257812 41.507812 C 92.269531 41.507812 92.285156 41.503906 92.300781 41.503906 C 92.304688 41.503906 92.308594 41.5 92.316406 41.5 C 92.324219 41.5 92.335938 41.496094 92.347656 41.492188 C 92.351562 41.492188 92.355469 41.492188 92.363281 41.488281 C 92.371094 41.484375 92.378906 41.480469 92.390625 41.480469 C 92.394531 41.476562 92.398438 41.472656 92.40625 41.472656 C 92.40625 41.46875 92.410156 41.46875 92.414062 41.46875 C 92.417969 41.464844 92.425781 41.460938 92.429688 41.457031 C 92.433594 41.457031 92.4375 41.453125 92.441406 41.449219 L 95.707031 39.269531 C 99.078125 37.023438 103.347656 36.542969 107.128906 37.988281 L 107.191406 38.011719 C 107.292969 38.050781 107.410156 38.035156 107.5 37.972656 C 107.59375 37.910156 107.644531 37.808594 107.644531 37.699219 L 107.644531 16.273438 C 107.644531 16.125 107.546875 15.992188 107.402344 15.949219 " fill-opacity="1" fill-rule="nonzero"/></g><g fill="#ffffff" fill-opacity="1"><g transform="translate(60.995865, 30.045346)"><g><path d="M 5.5625 -1.921875 C 5.445312 -1.585938 5.359375 -1.257812 5.296875 -0.9375 C 5.234375 -0.613281 5.207031 -0.300781 5.21875 0 C 4.351562 -0.03125 3.515625 -0.046875 2.703125 -0.046875 C 1.898438 -0.046875 1.085938 -0.03125 0.265625 0 L 0.265625 -0.421875 C 0.554688 -0.441406 0.753906 -0.488281 0.859375 -0.5625 C 0.960938 -0.632812 1.015625 -0.757812 1.015625 -0.9375 L 1.015625 -5.625 C 1.015625 -5.78125 0.960938 -5.882812 0.859375 -5.9375 C 0.753906 -5.988281 0.554688 -6.023438 0.265625 -6.046875 L 0.265625 -6.46875 L 5.03125 -6.46875 C 5.09375 -6.46875 5.132812 -6.453125 5.15625 -6.421875 C 5.175781 -6.398438 5.191406 -6.351562 5.203125 -6.28125 L 5.390625 -4.96875 L 5 -4.96875 L 4.875 -5.203125 C 4.769531 -5.398438 4.664062 -5.554688 4.5625 -5.671875 C 4.46875 -5.796875 4.34375 -5.882812 4.1875 -5.9375 C 4.03125 -6 3.8125 -6.03125 3.53125 -6.03125 L 3.03125 -6.03125 C 2.820312 -6.03125 2.71875 -5.925781 2.71875 -5.71875 L 2.71875 -3.625 L 3.71875 -3.625 C 3.988281 -3.625 4.179688 -3.671875 4.296875 -3.765625 C 4.410156 -3.859375 4.492188 -4.015625 4.546875 -4.234375 L 4.875 -4.234375 C 4.84375 -3.921875 4.828125 -3.625 4.828125 -3.34375 C 4.828125 -3.070312 4.84375 -2.785156 4.875 -2.484375 L 4.546875 -2.484375 C 4.492188 -2.691406 4.410156 -2.847656 4.296875 -2.953125 C 4.179688 -3.066406 3.988281 -3.125 3.71875 -3.125 L 2.71875 -3.125 L 2.71875 -0.9375 C 2.71875 -0.757812 2.753906 -0.632812 2.828125 -0.5625 C 2.910156 -0.5 3.035156 -0.46875 3.203125 -0.46875 L 3.3125 -0.46875 C 3.707031 -0.46875 4.003906 -0.523438 4.203125 -0.640625 C 4.398438 -0.765625 4.570312 -0.953125 4.71875 -1.203125 L 5.15625 -1.921875 Z M 5.5625 -1.921875 "/></g></g></g><g fill="#ffffff" fill-opacity="1"><g transform="translate(66.3574, 30.045346)"><g><path d="M 3.203125 -6.46875 C 3.878906 -6.46875 4.484375 -6.363281 5.015625 -6.15625 C 5.554688 -5.945312 5.976562 -5.601562 6.28125 -5.125 C 6.59375 -4.644531 6.75 -4.003906 6.75 -3.203125 C 6.75 -2.617188 6.671875 -2.132812 6.515625 -1.75 C 6.359375 -1.363281 6.15625 -1.050781 5.90625 -0.8125 C 5.65625 -0.570312 5.394531 -0.394531 5.125 -0.28125 C 4.851562 -0.164062 4.597656 -0.0859375 4.359375 -0.046875 C 4.128906 -0.015625 3.945312 0 3.8125 0 C 3.5625 0 3.285156 -0.03125 2.984375 -0.09375 C 2.679688 -0.15625 2.3125 -0.1875 1.875 -0.1875 C 1.539062 -0.1875 1.25 -0.160156 1 -0.109375 C 0.75 -0.0664062 0.503906 -0.03125 0.265625 0 L 0.265625 -0.421875 C 0.523438 -0.472656 0.710938 -0.53125 0.828125 -0.59375 C 0.953125 -0.664062 1.015625 -0.785156 1.015625 -0.953125 L 1.015625 -5.546875 C 1.015625 -5.734375 0.960938 -5.859375 0.859375 -5.921875 C 0.753906 -5.984375 0.582031 -6.023438 0.34375 -6.046875 L 0.34375 -6.46875 C 0.875 -6.445312 1.363281 -6.441406 1.8125 -6.453125 C 2.269531 -6.460938 2.734375 -6.46875 3.203125 -6.46875 Z M 3.28125 -0.46875 C 3.6875 -0.46875 4 -0.585938 4.21875 -0.828125 C 4.445312 -1.078125 4.609375 -1.410156 4.703125 -1.828125 C 4.796875 -2.242188 4.84375 -2.707031 4.84375 -3.21875 C 4.84375 -4.132812 4.695312 -4.832031 4.40625 -5.3125 C 4.125 -5.789062 3.695312 -6.03125 3.125 -6.03125 C 3.082031 -6.03125 3.023438 -6.03125 2.953125 -6.03125 C 2.890625 -6.03125 2.8125 -6.023438 2.71875 -6.015625 L 2.71875 -0.921875 C 2.71875 -0.773438 2.753906 -0.671875 2.828125 -0.609375 C 2.898438 -0.546875 2.976562 -0.503906 3.0625 -0.484375 C 3.15625 -0.472656 3.226562 -0.46875 3.28125 -0.46875 Z M 3.28125 -0.46875 "/></g></g></g><g fill="#ffffff" fill-opacity="1"><g transform="translate(72.999479, 30.045346)"><g><path d="M 7.578125 -6.046875 C 7.273438 -6.023438 7.066406 -5.976562 6.953125 -5.90625 C 6.835938 -5.832031 6.78125 -5.707031 6.78125 -5.53125 L 6.78125 -0.84375 C 6.78125 -0.707031 6.835938 -0.609375 6.953125 -0.546875 C 7.066406 -0.484375 7.273438 -0.441406 7.578125 -0.421875 L 7.578125 0 C 7.035156 -0.0078125 6.5625 -0.015625 6.15625 -0.015625 C 5.75 -0.015625 5.34375 -0.0078125 4.9375 0 L 4.9375 -0.421875 C 4.976562 -0.453125 5.007812 -0.503906 5.03125 -0.578125 C 5.0625 -0.648438 5.078125 -0.78125 5.078125 -0.96875 L 5.078125 -1.125 C 4.972656 -0.925781 4.832031 -0.734375 4.65625 -0.546875 C 4.488281 -0.359375 4.273438 -0.203125 4.015625 -0.078125 C 3.753906 0.046875 3.425781 0.109375 3.03125 0.109375 C 2.363281 0.109375 1.847656 -0.0820312 1.484375 -0.46875 C 1.117188 -0.851562 0.9375 -1.351562 0.9375 -1.96875 L 0.9375 -5.53125 C 0.9375 -5.707031 0.878906 -5.832031 0.765625 -5.90625 C 0.648438 -5.976562 0.445312 -6.023438 0.15625 -6.046875 L 0.15625 -6.46875 C 1.25 -6.425781 2.34375 -6.425781 3.4375 -6.46875 L 3.4375 -6.046875 C 3.132812 -6.023438 2.925781 -5.976562 2.8125 -5.90625 C 2.695312 -5.832031 2.640625 -5.707031 2.640625 -5.53125 L 2.640625 -1.984375 C 2.640625 -1.484375 2.71875 -1.097656 2.875 -0.828125 C 3.039062 -0.554688 3.289062 -0.421875 3.625 -0.421875 C 3.875 -0.421875 4.09375 -0.488281 4.28125 -0.625 C 4.46875 -0.757812 4.628906 -0.929688 4.765625 -1.140625 C 4.898438 -1.347656 5.003906 -1.554688 5.078125 -1.765625 L 5.078125 -5.53125 C 5.078125 -5.707031 5.019531 -5.832031 4.90625 -5.90625 C 4.789062 -5.976562 4.585938 -6.023438 4.296875 -6.046875 L 4.296875 -6.46875 C 5.390625 -6.425781 6.484375 -6.425781 7.578125 -6.46875 Z M 7.578125 -6.046875 "/></g></g></g><g fill="#ffffff" fill-opacity="1"><g transform="translate(80.214157, 30.045346)"><g><path d="M 5.859375 -1.765625 L 6.421875 -1.765625 C 6.347656 -1.453125 6.207031 -1.144531 6 -0.84375 C 5.789062 -0.550781 5.503906 -0.304688 5.140625 -0.109375 C 4.773438 0.078125 4.3125 0.171875 3.75 0.171875 C 3.082031 0.171875 2.492188 0.0195312 1.984375 -0.28125 C 1.472656 -0.582031 1.070312 -0.992188 0.78125 -1.515625 C 0.5 -2.035156 0.359375 -2.628906 0.359375 -3.296875 C 0.359375 -3.984375 0.5 -4.570312 0.78125 -5.0625 C 1.070312 -5.5625 1.460938 -5.945312 1.953125 -6.21875 C 2.441406 -6.488281 3 -6.625 3.625 -6.625 C 3.894531 -6.625 4.113281 -6.601562 4.28125 -6.5625 C 4.445312 -6.519531 4.609375 -6.472656 4.765625 -6.421875 C 4.929688 -6.378906 5.125 -6.359375 5.34375 -6.359375 C 5.40625 -6.359375 5.476562 -6.359375 5.5625 -6.359375 C 5.644531 -6.367188 5.769531 -6.398438 5.9375 -6.453125 C 5.945312 -6.148438 5.984375 -5.84375 6.046875 -5.53125 C 6.117188 -5.226562 6.210938 -4.925781 6.328125 -4.625 L 5.46875 -4.625 C 5.269531 -5.0625 5.023438 -5.414062 4.734375 -5.6875 C 4.453125 -5.96875 4.09375 -6.109375 3.65625 -6.109375 C 3.125 -6.109375 2.742188 -5.882812 2.515625 -5.4375 C 2.285156 -5 2.171875 -4.394531 2.171875 -3.625 C 2.171875 -3.039062 2.238281 -2.5 2.375 -2 C 2.507812 -1.507812 2.722656 -1.113281 3.015625 -0.8125 C 3.304688 -0.519531 3.675781 -0.375 4.125 -0.375 C 4.332031 -0.375 4.546875 -0.410156 4.765625 -0.484375 C 4.984375 -0.566406 5.1875 -0.710938 5.375 -0.921875 C 5.570312 -1.128906 5.734375 -1.410156 5.859375 -1.765625 Z M 5.859375 -1.765625 "/></g></g></g><g fill="#ffffff" fill-opacity="1"><g transform="translate(86.325279, 30.045346)"><g><path d="M 3.5625 -6.625 C 4.164062 -6.625 4.707031 -6.488281 5.1875 -6.21875 C 5.664062 -5.945312 6.046875 -5.550781 6.328125 -5.03125 C 6.609375 -4.507812 6.75 -3.890625 6.75 -3.171875 C 6.75 -2.523438 6.601562 -1.945312 6.3125 -1.4375 C 6.03125 -0.9375 5.644531 -0.539062 5.15625 -0.25 C 4.675781 0.03125 4.140625 0.171875 3.546875 0.171875 C 2.941406 0.171875 2.398438 0.0351562 1.921875 -0.234375 C 1.441406 -0.515625 1.0625 -0.910156 0.78125 -1.421875 C 0.5 -1.941406 0.359375 -2.5625 0.359375 -3.28125 C 0.359375 -3.945312 0.5 -4.53125 0.78125 -5.03125 C 1.070312 -5.53125 1.457031 -5.921875 1.9375 -6.203125 C 2.414062 -6.484375 2.957031 -6.625 3.5625 -6.625 Z M 3.75 -0.34375 C 4.125 -0.34375 4.414062 -0.566406 4.625 -1.015625 C 4.832031 -1.460938 4.9375 -2.09375 4.9375 -2.90625 C 4.9375 -3.5 4.875 -4.035156 4.75 -4.515625 C 4.625 -5.003906 4.445312 -5.394531 4.21875 -5.6875 C 3.988281 -5.976562 3.710938 -6.125 3.390625 -6.125 C 3.003906 -6.125 2.703125 -5.894531 2.484375 -5.4375 C 2.273438 -4.988281 2.171875 -4.351562 2.171875 -3.53125 C 2.171875 -2.945312 2.234375 -2.410156 2.359375 -1.921875 C 2.484375 -1.441406 2.660156 -1.054688 2.890625 -0.765625 C 3.128906 -0.484375 3.414062 -0.34375 3.75 -0.34375 Z M 3.75 -0.34375 "/></g></g></g><g fill="#ffffff" fill-opacity="1"><g transform="translate(92.915302, 30.045346)"><g><path d="M 4.09375 -6.46875 C 5.113281 -6.425781 6.078125 -6.425781 6.984375 -6.46875 L 6.984375 -6.046875 C 6.804688 -6.035156 6.628906 -6.003906 6.453125 -5.953125 C 6.285156 -5.898438 6.144531 -5.828125 6.03125 -5.734375 C 5.925781 -5.640625 5.875 -5.507812 5.875 -5.34375 L 5.875 0 L 5.34375 0 L 1.796875 -4.984375 L 1.796875 -1.125 C 1.796875 -0.863281 1.914062 -0.6875 2.15625 -0.59375 C 2.394531 -0.5 2.691406 -0.441406 3.046875 -0.421875 L 3.046875 0 C 2.003906 -0.03125 1.039062 -0.03125 0.15625 0 L 0.15625 -0.421875 C 0.332031 -0.441406 0.503906 -0.472656 0.671875 -0.515625 C 0.835938 -0.554688 0.972656 -0.625 1.078125 -0.71875 C 1.191406 -0.820312 1.25 -0.957031 1.25 -1.125 L 1.25 -5.15625 C 1.25 -5.425781 1.15625 -5.632812 0.96875 -5.78125 C 0.789062 -5.9375 0.554688 -6.023438 0.265625 -6.046875 L 0.265625 -6.46875 C 1.097656 -6.425781 1.925781 -6.425781 2.75 -6.46875 L 5.34375 -2.828125 L 5.34375 -5.34375 C 5.34375 -5.59375 5.222656 -5.765625 4.984375 -5.859375 C 4.742188 -5.953125 4.445312 -6.015625 4.09375 -6.046875 Z M 4.09375 -6.46875 "/></g></g></g><g fill="#ffffff" fill-opacity="1"><g transform="translate(99.536558, 30.045346)"><g><path d="M 4.09375 -6.46875 C 5.113281 -6.425781 6.078125 -6.425781 6.984375 -6.46875 L 6.984375 -6.046875 C 6.804688 -6.035156 6.628906 -6.003906 6.453125 -5.953125 C 6.285156 -5.898438 6.144531 -5.828125 6.03125 -5.734375 C 5.925781 -5.640625 5.875 -5.507812 5.875 -5.34375 L 5.875 0 L 5.34375 0 L 1.796875 -4.984375 L 1.796875 -1.125 C 1.796875 -0.863281 1.914062 -0.6875 2.15625 -0.59375 C 2.394531 -0.5 2.691406 -0.441406 3.046875 -0.421875 L 3.046875 0 C 2.003906 -0.03125 1.039062 -0.03125 0.15625 0 L 0.15625 -0.421875 C 0.332031 -0.441406 0.503906 -0.472656 0.671875 -0.515625 C 0.835938 -0.554688 0.972656 -0.625 1.078125 -0.71875 C 1.191406 -0.820312 1.25 -0.957031 1.25 -1.125 L 1.25 -5.15625 C 1.25 -5.425781 1.15625 -5.632812 0.96875 -5.78125 C 0.789062 -5.9375 0.554688 -6.023438 0.265625 -6.046875 L 0.265625 -6.46875 C 1.097656 -6.425781 1.925781 -6.425781 2.75 -6.46875 L 5.34375 -2.828125 L 5.34375 -5.34375 C 5.34375 -5.59375 5.222656 -5.765625 4.984375 -5.859375 C 4.742188 -5.953125 4.445312 -6.015625 4.09375 -6.046875 Z M 4.09375 -6.46875 "/></g></g></g><g fill="#ffffff" fill-opacity="1"><g transform="translate(106.157815, 30.045346)"><g><path d="M 5.5625 -1.921875 C 5.445312 -1.585938 5.359375 -1.257812 5.296875 -0.9375 C 5.234375 -0.613281 5.207031 -0.300781 5.21875 0 C 4.351562 -0.03125 3.515625 -0.046875 2.703125 -0.046875 C 1.898438 -0.046875 1.085938 -0.03125 0.265625 0 L 0.265625 -0.421875 C 0.554688 -0.441406 0.753906 -0.488281 0.859375 -0.5625 C 0.960938 -0.632812 1.015625 -0.757812 1.015625 -0.9375 L 1.015625 -5.625 C 1.015625 -5.78125 0.960938 -5.882812 0.859375 -5.9375 C 0.753906 -5.988281 0.554688 -6.023438 0.265625 -6.046875 L 0.265625 -6.46875 L 5.03125 -6.46875 C 5.09375 -6.46875 5.132812 -6.453125 5.15625 -6.421875 C 5.175781 -6.398438 5.191406 -6.351562 5.203125 -6.28125 L 5.390625 -4.96875 L 5 -4.96875 L 4.875 -5.203125 C 4.769531 -5.398438 4.664062 -5.554688 4.5625 -5.671875 C 4.46875 -5.796875 4.34375 -5.882812 4.1875 -5.9375 C 4.03125 -6 3.8125 -6.03125 3.53125 -6.03125 L 3.03125 -6.03125 C 2.820312 -6.03125 2.71875 -5.925781 2.71875 -5.71875 L 2.71875 -3.625 L 3.71875 -3.625 C 3.988281 -3.625 4.179688 -3.671875 4.296875 -3.765625 C 4.410156 -3.859375 4.492188 -4.015625 4.546875 -4.234375 L 4.875 -4.234375 C 4.84375 -3.921875 4.828125 -3.625 4.828125 -3.34375 C 4.828125 -3.070312 4.84375 -2.785156 4.875 -2.484375 L 4.546875 -2.484375 C 4.492188 -2.691406 4.410156 -2.847656 4.296875 -2.953125 C 4.179688 -3.066406 3.988281 -3.125 3.71875 -3.125 L 2.71875 -3.125 L 2.71875 -0.9375 C 2.71875 -0.757812 2.753906 -0.632812 2.828125 -0.5625 C 2.910156 -0.5 3.035156 -0.46875 3.203125 -0.46875 L 3.3125 -0.46875 C 3.707031 -0.46875 4.003906 -0.523438 4.203125 -0.640625 C 4.398438 -0.765625 4.570312 -0.953125 4.71875 -1.203125 L 5.15625 -1.921875 Z M 5.5625 -1.921875 "/></g></g></g><g fill="#ffffff" fill-opacity="1"><g transform="translate(111.51935, 30.045346)"><g><path d="M 5.859375 -1.765625 L 6.421875 -1.765625 C 6.347656 -1.453125 6.207031 -1.144531 6 -0.84375 C 5.789062 -0.550781 5.503906 -0.304688 5.140625 -0.109375 C 4.773438 0.078125 4.3125 0.171875 3.75 0.171875 C 3.082031 0.171875 2.492188 0.0195312 1.984375 -0.28125 C 1.472656 -0.582031 1.070312 -0.992188 0.78125 -1.515625 C 0.5 -2.035156 0.359375 -2.628906 0.359375 -3.296875 C 0.359375 -3.984375 0.5 -4.570312 0.78125 -5.0625 C 1.070312 -5.5625 1.460938 -5.945312 1.953125 -6.21875 C 2.441406 -6.488281 3 -6.625 3.625 -6.625 C 3.894531 -6.625 4.113281 -6.601562 4.28125 -6.5625 C 4.445312 -6.519531 4.609375 -6.472656 4.765625 -6.421875 C 4.929688 -6.378906 5.125 -6.359375 5.34375 -6.359375 C 5.40625 -6.359375 5.476562 -6.359375 5.5625 -6.359375 C 5.644531 -6.367188 5.769531 -6.398438 5.9375 -6.453125 C 5.945312 -6.148438 5.984375 -5.84375 6.046875 -5.53125 C 6.117188 -5.226562 6.210938 -4.925781 6.328125 -4.625 L 5.46875 -4.625 C 5.269531 -5.0625 5.023438 -5.414062 4.734375 -5.6875 C 4.453125 -5.96875 4.09375 -6.109375 3.65625 -6.109375 C 3.125 -6.109375 2.742188 -5.882812 2.515625 -5.4375 C 2.285156 -5 2.171875 -4.394531 2.171875 -3.625 C 2.171875 -3.039062 2.238281 -2.5 2.375 -2 C 2.507812 -1.507812 2.722656 -1.113281 3.015625 -0.8125 C 3.304688 -0.519531 3.675781 -0.375 4.125 -0.375 C 4.332031 -0.375 4.546875 -0.410156 4.765625 -0.484375 C 4.984375 -0.566406 5.1875 -0.710938 5.375 -0.921875 C 5.570312 -1.128906 5.734375 -1.410156 5.859375 -1.765625 Z M 5.859375 -1.765625 "/></g></g></g><g fill="#ffffff" fill-opacity="1"><g transform="translate(117.630472, 30.045346)"><g><path d="M 5.59375 -6.53125 L 6 -6.53125 L 5.65625 -5.09375 L 5.25 -5.09375 C 5.28125 -5.363281 5.265625 -5.5625 5.203125 -5.6875 C 5.140625 -5.8125 5.050781 -5.890625 4.9375 -5.921875 C 4.832031 -5.953125 4.726562 -5.96875 4.625 -5.96875 L 3.90625 -5.96875 L 3.90625 -0.9375 C 3.90625 -0.757812 3.96875 -0.632812 4.09375 -0.5625 C 4.21875 -0.488281 4.453125 -0.441406 4.796875 -0.421875 L 4.796875 0 C 3.640625 -0.03125 2.476562 -0.03125 1.3125 0 L 1.3125 -0.421875 C 1.65625 -0.441406 1.890625 -0.488281 2.015625 -0.5625 C 2.140625 -0.632812 2.203125 -0.757812 2.203125 -0.9375 L 2.203125 -5.96875 L 1.59375 -5.96875 C 1.375 -5.96875 1.191406 -5.910156 1.046875 -5.796875 C 0.898438 -5.691406 0.742188 -5.457031 0.578125 -5.09375 L 0.15625 -5.09375 L 0.484375 -6.53125 L 0.890625 -6.53125 C 1.078125 -6.488281 1.273438 -6.46875 1.484375 -6.46875 C 1.691406 -6.46875 1.945312 -6.46875 2.25 -6.46875 L 4.265625 -6.46875 C 4.546875 -6.46875 4.789062 -6.46875 5 -6.46875 C 5.207031 -6.46875 5.40625 -6.488281 5.59375 -6.53125 Z M 5.59375 -6.53125 "/></g></g></g></svg>